Normalized EMG Linear Envelopes
nRows=54
nColumns=17

endheader
time	        VM	        VL	        RF	       GRA	        TA	   ADDLONG	   SEMIMEM	      BFLH	        GM	        GL	       TFL	   GLUTMAX	   GLUTMED	      PIRI	    OBTINT	        QF	
1.741	  0.053408	  0.145337	  0.258951	  0.736486	  0.368029	  0.415802	  0.232204	  0.135904	  0.222860	  0.394977	  0.415839	  0.020002	  0.095301	  0.159336	  0.291581	  0.119000	
1.7415	  0.052872	  0.144601	  0.258689	  0.739949	  0.372513	  0.416044	  0.232482	  0.136974	  0.222942	  0.393951	  0.417932	  0.019603	  0.095061	  0.159266	  0.290377	  0.118398	
1.742	  0.052369	  0.143888	  0.258453	  0.743352	  0.377038	  0.416253	  0.232736	  0.138032	  0.222996	  0.392869	  0.419987	  0.019218	  0.094831	  0.159162	  0.289142	  0.117798	
1.7425	  0.051898	  0.143196	  0.258245	  0.746695	  0.381603	  0.416431	  0.232967	  0.139077	  0.223022	  0.391733	  0.422004	  0.018845	  0.094610	  0.159024	  0.287877	  0.117198	
1.743	  0.051460	  0.142525	  0.258066	  0.749976	  0.386207	  0.416578	  0.233177	  0.140109	  0.223022	  0.390544	  0.423979	  0.018486	  0.094400	  0.158852	  0.286584	  0.116601	
1.7435	  0.051053	  0.141874	  0.257916	  0.753193	  0.390850	  0.416696	  0.233366	  0.141128	  0.222996	  0.389304	  0.425913	  0.018139	  0.094201	  0.158646	  0.285264	  0.116004	
1.744	  0.050677	  0.141243	  0.257798	  0.756346	  0.395528	  0.416786	  0.233534	  0.142134	  0.222943	  0.388015	  0.427803	  0.017805	  0.094012	  0.158404	  0.283919	  0.115410	
1.7445	  0.050331	  0.140631	  0.257711	  0.759432	  0.400242	  0.416850	  0.233684	  0.143125	  0.222866	  0.386679	  0.429647	  0.017483	  0.093833	  0.158129	  0.282549	  0.114816	
1.745	  0.050015	  0.140038	  0.257658	  0.762451	  0.404989	  0.416889	  0.233815	  0.144101	  0.222764	  0.385297	  0.431446	  0.017173	  0.093666	  0.157819	  0.281156	  0.114224	
1.7455	  0.049728	  0.139463	  0.257638	  0.765401	  0.409768	  0.416904	  0.233929	  0.145062	  0.222638	  0.383873	  0.433198	  0.016876	  0.093510	  0.157475	  0.279741	  0.113634	
1.746	  0.049469	  0.138907	  0.257655	  0.768281	  0.414577	  0.416895	  0.234027	  0.146009	  0.222489	  0.382406	  0.434902	  0.016591	  0.093366	  0.157097	  0.278305	  0.113044	
1.7465	  0.049238	  0.138369	  0.257708	  0.771089	  0.419415	  0.416864	  0.234108	  0.146939	  0.222316	  0.380901	  0.436558	  0.016317	  0.093233	  0.156685	  0.276849	  0.112456	
1.747	  0.049033	  0.137849	  0.257799	  0.773827	  0.424278	  0.416812	  0.234174	  0.147853	  0.222121	  0.379357	  0.438164	  0.016055	  0.093113	  0.156239	  0.275374	  0.111870	
1.7475	  0.048855	  0.137346	  0.257929	  0.776492	  0.429165	  0.416739	  0.234226	  0.148751	  0.221904	  0.377778	  0.439721	  0.015804	  0.093004	  0.155761	  0.273881	  0.111284	
1.748	  0.048702	  0.136860	  0.258099	  0.779085	  0.434075	  0.416647	  0.234263	  0.149631	  0.221667	  0.376165	  0.441227	  0.015565	  0.092907	  0.155250	  0.272371	  0.110701	
1.7485	  0.048574	  0.136392	  0.258310	  0.781606	  0.439003	  0.416535	  0.234287	  0.150494	  0.221409	  0.374520	  0.442681	  0.015336	  0.092823	  0.154707	  0.270844	  0.110118	
1.749	  0.048470	  0.135941	  0.258564	  0.784053	  0.443949	  0.416406	  0.234298	  0.151339	  0.221131	  0.372846	  0.444083	  0.015118	  0.092751	  0.154133	  0.269302	  0.109538	
1.7495	  0.048390	  0.135506	  0.258863	  0.786426	  0.448910	  0.416259	  0.234296	  0.152165	  0.220834	  0.371143	  0.445431	  0.014911	  0.092691	  0.153529	  0.267747	  0.108959	
1.75	  0.048333	  0.135088	  0.259207	  0.788724	  0.453883	  0.416096	  0.234281	  0.152972	  0.220518	  0.369416	  0.446727	  0.014715	  0.092644	  0.152894	  0.266177	  0.108382	
1.7505	  0.048298	  0.134686	  0.259599	  0.790947	  0.458866	  0.415918	  0.234254	  0.153759	  0.220185	  0.367665	  0.447968	  0.014529	  0.092609	  0.152231	  0.264596	  0.107806	
1.751	  0.048284	  0.134302	  0.260039	  0.793093	  0.463856	  0.415726	  0.234216	  0.154526	  0.219833	  0.365893	  0.449155	  0.014353	  0.092587	  0.151540	  0.263003	  0.107233	
1.7515	  0.048292	  0.133934	  0.260530	  0.795162	  0.468850	  0.415520	  0.234165	  0.155272	  0.219464	  0.364102	  0.450288	  0.014187	  0.092578	  0.150821	  0.261400	  0.106662	
1.752	  0.048321	  0.133583	  0.261072	  0.797153	  0.473846	  0.415303	  0.234102	  0.155996	  0.219077	  0.362296	  0.451366	  0.014031	  0.092581	  0.150075	  0.259788	  0.106094	
1.7525	  0.048370	  0.133250	  0.261666	  0.799066	  0.478841	  0.415075	  0.234028	  0.156700	  0.218673	  0.360474	  0.452390	  0.013885	  0.092596	  0.149304	  0.258167	  0.105527	
1.753	  0.048438	  0.132933	  0.262315	  0.800900	  0.483831	  0.414837	  0.233942	  0.157382	  0.218252	  0.358641	  0.453360	  0.013748	  0.092624	  0.148507	  0.256538	  0.104963	
1.7535	  0.048525	  0.132634	  0.263019	  0.802654	  0.488814	  0.414591	  0.233845	  0.158041	  0.217815	  0.356798	  0.454275	  0.013620	  0.092664	  0.147686	  0.254903	  0.104401	
1.754	  0.048631	  0.132353	  0.263780	  0.804327	  0.493786	  0.414337	  0.233735	  0.158679	  0.217360	  0.354947	  0.455135	  0.013502	  0.092717	  0.146841	  0.253261	  0.103842	
1.7545	  0.048754	  0.132089	  0.264598	  0.805920	  0.498743	  0.414076	  0.233613	  0.159294	  0.216888	  0.353090	  0.455941	  0.013393	  0.092781	  0.145973	  0.251614	  0.103284	
1.755	  0.048895	  0.131843	  0.265475	  0.807431	  0.503683	  0.413809	  0.233479	  0.159887	  0.216399	  0.351228	  0.456693	  0.013292	  0.092857	  0.145082	  0.249962	  0.102729	
1.7555	  0.049052	  0.131614	  0.266411	  0.808862	  0.508601	  0.413537	  0.233332	  0.160457	  0.215893	  0.349364	  0.457389	  0.013200	  0.092945	  0.144171	  0.248305	  0.102176	
1.756	  0.049225	  0.131403	  0.267408	  0.810213	  0.513495	  0.413260	  0.233173	  0.161004	  0.215370	  0.347499	  0.458031	  0.013117	  0.093045	  0.143239	  0.246645	  0.101625	
1.7565	  0.049414	  0.131210	  0.268466	  0.811484	  0.518360	  0.412979	  0.233001	  0.161527	  0.214829	  0.345634	  0.458619	  0.013042	  0.093156	  0.142287	  0.244982	  0.101077	
1.757	  0.049617	  0.131035	  0.269587	  0.812677	  0.523193	  0.412695	  0.232815	  0.162028	  0.214271	  0.343771	  0.459153	  0.012975	  0.093279	  0.141317	  0.243317	  0.100531	
1.7575	  0.049835	  0.130877	  0.270770	  0.813790	  0.527991	  0.412408	  0.232616	  0.162505	  0.213695	  0.341912	  0.459635	  0.012916	  0.093413	  0.140329	  0.241651	  0.099987	
1.758	  0.050066	  0.130737	  0.272017	  0.814826	  0.532748	  0.412119	  0.232403	  0.162959	  0.213101	  0.340057	  0.460065	  0.012865	  0.093558	  0.139325	  0.239983	  0.099446	
1.7585	  0.050311	  0.130614	  0.273327	  0.815783	  0.537463	  0.411829	  0.232176	  0.163388	  0.212488	  0.338209	  0.460444	  0.012822	  0.093714	  0.138305	  0.238316	  0.098907	
1.759	  0.050568	  0.130508	  0.274703	  0.816662	  0.542132	  0.411538	  0.231935	  0.163794	  0.211856	  0.336368	  0.460776	  0.012786	  0.093881	  0.137270	  0.236649	  0.098371	
1.7595	  0.050837	  0.130420	  0.276143	  0.817464	  0.546750	  0.411246	  0.231679	  0.164176	  0.211206	  0.334536	  0.461060	  0.012758	  0.094059	  0.136222	  0.234984	  0.097837	
1.76	  0.051117	  0.130348	  0.277649	  0.818189	  0.551316	  0.410953	  0.231410	  0.164533	  0.210535	  0.332713	  0.461298	  0.012737	  0.094247	  0.135161	  0.233320	  0.097305	
1.7605	  0.051409	  0.130294	  0.279221	  0.818837	  0.555826	  0.410660	  0.231126	  0.164867	  0.209845	  0.330900	  0.461491	  0.012723	  0.094446	  0.134089	  0.231658	  0.096776	
1.761	  0.051711	  0.130256	  0.280860	  0.819409	  0.560276	  0.410367	  0.230828	  0.165177	  0.209134	  0.329098	  0.461641	  0.012716	  0.094655	  0.133006	  0.229999	  0.096250	
1.7615	  0.052022	  0.130235	  0.282565	  0.819905	  0.564663	  0.410074	  0.230517	  0.165463	  0.208402	  0.327308	  0.461748	  0.012716	  0.094875	  0.131913	  0.228343	  0.095726	
1.762	  0.052343	  0.130230	  0.284336	  0.820326	  0.568984	  0.409781	  0.230193	  0.165725	  0.207648	  0.325531	  0.461814	  0.012722	  0.095104	  0.130811	  0.226690	  0.095205	
1.7625	  0.052673	  0.130241	  0.286175	  0.820672	  0.573236	  0.409490	  0.229855	  0.165964	  0.206872	  0.323768	  0.461838	  0.012735	  0.095344	  0.129702	  0.225041	  0.094686	
1.763	  0.053011	  0.130268	  0.288080	  0.820942	  0.577415	  0.409199	  0.229506	  0.166178	  0.206073	  0.322018	  0.461823	  0.012755	  0.095593	  0.128586	  0.223395	  0.094171	
1.7635	  0.053357	  0.130310	  0.290052	  0.821137	  0.581517	  0.408909	  0.229145	  0.166368	  0.205252	  0.320283	  0.461769	  0.012780	  0.095852	  0.127464	  0.221754	  0.093659	
1.764	  0.053709	  0.130368	  0.292091	  0.821257	  0.585539	  0.408621	  0.228772	  0.166535	  0.204408	  0.318563	  0.461676	  0.012812	  0.096120	  0.126337	  0.220118	  0.093150	
1.7645	  0.054069	  0.130440	  0.294196	  0.821301	  0.589479	  0.408333	  0.228390	  0.166677	  0.203542	  0.316859	  0.461545	  0.012850	  0.096397	  0.125206	  0.218487	  0.092645	
1.765	  0.054435	  0.130527	  0.296367	  0.821271	  0.593332	  0.408047	  0.227999	  0.166795	  0.202653	  0.315171	  0.461379	  0.012893	  0.096684	  0.124071	  0.216862	  0.092143	
1.7655	  0.054806	  0.130628	  0.298605	  0.821167	  0.597097	  0.407762	  0.227598	  0.166889	  0.201742	  0.313500	  0.461176	  0.012942	  0.096979	  0.122935	  0.215244	  0.091645	
1.766	  0.055182	  0.130742	  0.300908	  0.820989	  0.600771	  0.407477	  0.227190	  0.166958	  0.200809	  0.311847	  0.460940	  0.012996	  0.097283	  0.121796	  0.213633	  0.091151	
1.7665	  0.055563	  0.130869	  0.303276	  0.820737	  0.604352	  0.407192	  0.226773	  0.167003	  0.199853	  0.310211	  0.460670	  0.013056	  0.097595	  0.120657	  0.212030	  0.090661	
1.767	  0.055948	  0.131008	  0.305708	  0.820413	  0.607839	  0.406908	  0.226350	  0.167024	  0.198876	  0.308593	  0.460367	  0.013121	  0.097916	  0.119518	  0.210436	  0.090175	
1.7675	  0.056337	  0.131159	  0.308205	  0.820018	  0.611230	  0.406623	  0.225920	  0.167021	  0.197877	  0.306993	  0.460033	  0.013191	  0.098244	  0.118380	  0.208851	  0.089693	
